<svg xmlns="http://www.w3.org/2000/svg" viewBox="0 0 281.84 56" role="img" aria-label="Flightglass">
  <g transform="translate(-12 -12) scale(.44444444)">
  <g fill="none" stroke-linecap="round" stroke-linejoin="round">
    <circle cx="90" cy="90" r="54" stroke="#F5F2ED" stroke-width="8"
      stroke-dasharray="277 63" transform="rotate(-24 90 90)"/>
    <path d="M34 116 C55 113 67 103 78 86 C91 66 108 57 146 55"
      stroke="#FF8A4D" stroke-width="6"/>
    <circle cx="83" cy="79" r="4.2" fill="#07060C" stroke="#F5F2ED" stroke-width="3"/>
  </g></g>
  <g fill="#F5F2ED" transform="translate(72 40)"><g transform="scale(0.04000000 -0.04000000)"><path d="M190 0L190 432L30 432L30 486L190 486L190 624Q190 660 209.5 680Q229 700 268 700L388 700L388 646L280 646Q250 646 250 616L250 486L414 486L414 432L250 432L250 0ZM510 0L510 700L570 700L570 0Z" transform="translate(0.00 0.00)"/><path d="M88 0L88 486L148 486L148 0ZM118 570Q96 570 81 585Q66 600 66 622Q66 645 81 659.5Q96 674 118 674Q141 674 155.5 659.5Q170 645 170 622Q170 600 155.5 585Q141 570 118 570Z" transform="translate(674.00 0.00)"/><path d="M64 241L64 253Q64 330 95.5 385Q127 440 180 470Q233 500 298 500Q378 500 422.5 468.5Q467 437 488 397L500 397L500 486L556 486L556 -124Q556 -160 537 -180Q518 -200 479 -200L147 -200L147 -146L467 -146Q498 -146 498 -116L498 93L486 93Q473 69 449.5 46Q426 23 389 8.5Q352 -6 298 -6Q233 -6 179.5 24Q126 54 95 109.5Q64 165 64 241ZM312 48Q395 48 446.5 100Q498 152 498 243L498 251Q498 343 446.5 394.5Q395 446 312 446Q230 446 178 394.5Q126 343 126 251L126 243Q126 152 178 100Q230 48 312 48Z" transform="translate(926.00 0.00)"/><path d="M88 0L88 700L148 700L148 401L160 401Q172 425 193.5 446.5Q215 468 249.5 481.5Q284 495 336 495Q389 495 433 473Q477 451 503.5 407Q530 363 530 296L530 0L470 0L470 292Q470 372 430 406.5Q390 441 323 441Q248 441 198 392Q148 343 148 243L148 0Z" transform="translate(1586.00 0.00)"/><path d="M264 0Q225 0 205.5 20Q186 40 186 76L186 432L30 432L30 486L186 486L186 668L246 668L246 486L416 486L416 432L246 432L246 84Q246 54 276 54L390 54L390 0Z" transform="translate(2200.00 0.00)"/><path d="M64 241L64 253Q64 330 95.5 385Q127 440 180 470Q233 500 298 500Q378 500 422.5 468.5Q467 437 488 397L500 397L500 486L556 486L556 -124Q556 -160 537 -180Q518 -200 479 -200L147 -200L147 -146L467 -146Q498 -146 498 -116L498 93L486 93Q473 69 449.5 46Q426 23 389 8.5Q352 -6 298 -6Q233 -6 179.5 24Q126 54 95 109.5Q64 165 64 241ZM312 48Q395 48 446.5 100Q498 152 498 243L498 251Q498 343 446.5 394.5Q395 446 312 446Q230 446 178 394.5Q126 343 126 251L126 243Q126 152 178 100Q230 48 312 48Z" transform="translate(2660.00 0.00)"/><path d="M88 0L88 700L148 700L148 0Z" transform="translate(3327.00 0.00)"/><path d="M237 -14Q186 -14 144.5 3.5Q103 21 79 55Q55 89 55 137Q55 186 79 218Q103 250 144 266Q185 282 235 282L413 282L413 321Q413 380 379 413Q345 446 280 446Q216 446 178.5 414.5Q141 383 128 330L70 347Q82 390 108 424.5Q134 459 177 479.5Q220 500 280 500Q372 500 422.5 452Q473 404 473 318L473 82Q473 52 501 52L548 52L548 0L484 0Q453 0 435 18.5Q417 37 417 69L417 76L407 76Q394 54 373.5 33Q353 12 320 -1Q287 -14 237 -14ZM241 40Q318 40 365.5 86.5Q413 133 413 218L413 230L236 230Q184 230 149.5 207.5Q115 185 115 138Q115 91 150.5 65.5Q186 40 241 40Z" transform="translate(3572.00 0.00)"/><path d="M281 -14Q193 -14 130.5 28Q68 70 54 167L113 178Q121 125 145.5 94.5Q170 64 205.5 51Q241 38 281 38Q341 38 377.5 62.5Q414 87 414 130Q414 174 379.5 191Q345 208 288 218L242 226Q196 234 159 250.5Q122 267 100.5 295Q79 323 79 365Q79 428 128.5 464Q178 500 260 500Q343 500 393.5 462.5Q444 425 457 354L401 342Q391 400 353.5 424Q316 448 260 448Q205 448 172 427Q139 406 139 365Q139 325 169 306.5Q199 288 251 279L297 271Q347 263 387 247.5Q427 232 450.5 204Q474 176 474 130Q474 61 422 23.5Q370 -14 281 -14Z" transform="translate(4158.00 0.00)"/><path d="M281 -14Q193 -14 130.5 28Q68 70 54 167L113 178Q121 125 145.5 94.5Q170 64 205.5 51Q241 38 281 38Q341 38 377.5 62.5Q414 87 414 130Q414 174 379.5 191Q345 208 288 218L242 226Q196 234 159 250.5Q122 267 100.5 295Q79 323 79 365Q79 428 128.5 464Q178 500 260 500Q343 500 393.5 462.5Q444 425 457 354L401 342Q391 400 353.5 424Q316 448 260 448Q205 448 172 427Q139 406 139 365Q139 325 169 306.5Q199 288 251 279L297 271Q347 263 387 247.5Q427 232 450.5 204Q474 176 474 130Q474 61 422 23.5Q370 -14 281 -14Z" transform="translate(4702.00 0.00)"/></g></g></svg>
